<?xml version="1.0" encoding="UTF-8" standalone="no"?>
<!DOCTYPE svg PUBLIC "-//W3C//DTD SVG 1.1//EN"
 "http://www.w3.org/Graphics/SVG/1.1/DTD/svg11.dtd">
<!-- Generated by graphviz version 2.40.1 (20161225.0304)
 -->
<!-- Title: %3 Pages: 1 -->
<svg width="652pt" height="404pt"
 viewBox="0.00 0.00 651.53 404.00" xmlns="http://www.w3.org/2000/svg" xmlns:xlink="http://www.w3.org/1999/xlink">
<g id="graph0" class="graph" transform="scale(1 1) rotate(0) translate(4 400)">
<title>%3</title>
<polygon fill="#ffffff" stroke="transparent" points="-4,4 -4,-400 647.5329,-400 647.5329,4 -4,4"/>
<!-- [root] aws_instance.server -->
<g id="node1" class="node">
<title>[root] aws_instance.server</title>
<polygon fill="none" stroke="#000000" points="643.5329,-252 518.5329,-252 518.5329,-216 643.5329,-216 643.5329,-252"/>
<text text-anchor="middle" x="581.0329" y="-230.3" font-family="Times,serif" font-size="14.00" fill="#000000">aws_instance.server</text>
</g>
<!-- [root] aws_subnet.subnet3 -->
<g id="node5" class="node">
<title>[root] aws_subnet.subnet3</title>
<polygon fill="none" stroke="#000000" points="552.5329,-180 427.5329,-180 427.5329,-144 552.5329,-144 552.5329,-180"/>
<text text-anchor="middle" x="490.0329" y="-158.3" font-family="Times,serif" font-size="14.00" fill="#000000">aws_subnet.subnet3</text>
</g>
<!-- [root] aws_instance.server&#45;&gt;[root] aws_subnet.subnet3 -->
<g id="edge1" class="edge">
<title>[root] aws_instance.server&#45;&gt;[root] aws_subnet.subnet3</title>
<path fill="none" stroke="#000000" d="M558.0697,-215.8314C546.8614,-206.9632 533.212,-196.1637 521.0889,-186.5718"/>
<polygon fill="#000000" stroke="#000000" points="523.0026,-183.6229 512.9887,-180.1628 518.6592,-189.1125 523.0026,-183.6229"/>
</g>
<!-- [root] data.aws_ami.ubuntu -->
<g id="node7" class="node">
<title>[root] data.aws_ami.ubuntu</title>
<polygon fill="none" stroke="#000000" points="631.5329,-108 498.5329,-108 498.5329,-72 631.5329,-72 631.5329,-108"/>
<text text-anchor="middle" x="565.0329" y="-86.3" font-family="Times,serif" font-size="14.00" fill="#000000">data.aws_ami.ubuntu</text>
</g>
<!-- [root] aws_instance.server&#45;&gt;[root] data.aws_ami.ubuntu -->
<g id="edge2" class="edge">
<title>[root] aws_instance.server&#45;&gt;[root] data.aws_ami.ubuntu</title>
<path fill="none" stroke="#000000" d="M579.0065,-215.7623C576.2774,-191.201 571.3937,-147.2474 568.1833,-118.3541"/>
<polygon fill="#000000" stroke="#000000" points="571.6258,-117.6419 567.0428,-108.0896 564.6686,-118.415 571.6258,-117.6419"/>
</g>
<!-- [root] aws_security_group.http_in_80 -->
<g id="node2" class="node">
<title>[root] aws_security_group.http_in_80</title>
<polygon fill="none" stroke="#000000" points="214.0329,-252 26.0329,-252 26.0329,-216 214.0329,-216 214.0329,-252"/>
<text text-anchor="middle" x="120.0329" y="-230.3" font-family="Times,serif" font-size="14.00" fill="#000000">aws_security_group.http_in_80</text>
</g>
<!-- [root] aws_vpc.vpc_testing -->
<g id="node6" class="node">
<title>[root] aws_vpc.vpc_testing</title>
<polygon fill="none" stroke="#000000" points="464.0329,-108 334.0329,-108 334.0329,-72 464.0329,-72 464.0329,-108"/>
<text text-anchor="middle" x="399.0329" y="-86.3" font-family="Times,serif" font-size="14.00" fill="#000000">aws_vpc.vpc_testing</text>
</g>
<!-- [root] aws_security_group.http_in_80&#45;&gt;[root] aws_vpc.vpc_testing -->
<g id="edge3" class="edge">
<title>[root] aws_security_group.http_in_80&#45;&gt;[root] aws_vpc.vpc_testing</title>
<path fill="none" stroke="#000000" d="M155.0859,-215.9081C205.7224,-189.7732 299.3193,-141.4651 354.693,-112.8851"/>
<polygon fill="#000000" stroke="#000000" points="356.6228,-115.8278 363.9038,-108.1311 353.4123,-109.6075 356.6228,-115.8278"/>
</g>
<!-- [root] aws_subnet.subnet1 -->
<g id="node3" class="node">
<title>[root] aws_subnet.subnet1</title>
<polygon fill="none" stroke="#000000" points="357.5329,-252 232.5329,-252 232.5329,-216 357.5329,-216 357.5329,-252"/>
<text text-anchor="middle" x="295.0329" y="-230.3" font-family="Times,serif" font-size="14.00" fill="#000000">aws_subnet.subnet1</text>
</g>
<!-- [root] aws_subnet.subnet1&#45;&gt;[root] aws_vpc.vpc_testing -->
<g id="edge4" class="edge">
<title>[root] aws_subnet.subnet1&#45;&gt;[root] aws_vpc.vpc_testing</title>
<path fill="none" stroke="#000000" d="M308.2045,-215.7623C326.334,-190.66 359.0927,-145.3017 379.9178,-116.4671"/>
<polygon fill="#000000" stroke="#000000" points="382.9506,-118.2457 385.9681,-108.0896 377.2758,-114.1472 382.9506,-118.2457"/>
</g>
<!-- [root] aws_subnet.subnet2 -->
<g id="node4" class="node">
<title>[root] aws_subnet.subnet2</title>
<polygon fill="none" stroke="#000000" points="500.5329,-252 375.5329,-252 375.5329,-216 500.5329,-216 500.5329,-252"/>
<text text-anchor="middle" x="438.0329" y="-230.3" font-family="Times,serif" font-size="14.00" fill="#000000">aws_subnet.subnet2</text>
</g>
<!-- [root] aws_subnet.subnet2&#45;&gt;[root] aws_vpc.vpc_testing -->
<g id="edge5" class="edge">
<title>[root] aws_subnet.subnet2&#45;&gt;[root] aws_vpc.vpc_testing</title>
<path fill="none" stroke="#000000" d="M430.9734,-215.6815C427.1319,-205.3094 422.4754,-192.0399 419.0329,-180 413.175,-159.5128 408.0012,-135.9953 404.384,-118.1392"/>
<polygon fill="#000000" stroke="#000000" points="407.7693,-117.2168 402.3908,-108.0887 400.903,-118.5785 407.7693,-117.2168"/>
</g>
<!-- [root] aws_subnet.subnet3&#45;&gt;[root] aws_vpc.vpc_testing -->
<g id="edge6" class="edge">
<title>[root] aws_subnet.subnet3&#45;&gt;[root] aws_vpc.vpc_testing</title>
<path fill="none" stroke="#000000" d="M467.0697,-143.8314C455.8614,-134.9632 442.212,-124.1637 430.0889,-114.5718"/>
<polygon fill="#000000" stroke="#000000" points="432.0026,-111.6229 421.9887,-108.1628 427.6592,-117.1125 432.0026,-111.6229"/>
</g>
<!-- [root] provider.aws -->
<g id="node8" class="node">
<title>[root] provider.aws</title>
<polygon fill="none" stroke="#000000" points="474.0329,-36 394.0995,-18 474.0329,0 553.9662,-18 474.0329,-36"/>
<text text-anchor="middle" x="474.0329" y="-14.3" font-family="Times,serif" font-size="14.00" fill="#000000">provider.aws</text>
</g>
<!-- [root] aws_vpc.vpc_testing&#45;&gt;[root] provider.aws -->
<g id="edge7" class="edge">
<title>[root] aws_vpc.vpc_testing&#45;&gt;[root] provider.aws</title>
<path fill="none" stroke="#000000" d="M417.9585,-71.8314C428.0153,-62.1769 440.4564,-50.2334 451.063,-40.0511"/>
<polygon fill="#000000" stroke="#000000" points="453.6117,-42.4561 458.4017,-33.0059 448.7639,-37.4064 453.6117,-42.4561"/>
</g>
<!-- [root] data.aws_ami.ubuntu&#45;&gt;[root] provider.aws -->
<g id="edge8" class="edge">
<title>[root] data.aws_ami.ubuntu&#45;&gt;[root] provider.aws</title>
<path fill="none" stroke="#000000" d="M542.0697,-71.8314C529.1633,-61.6197 513.0203,-48.8472 499.698,-38.3065"/>
<polygon fill="#000000" stroke="#000000" points="501.8356,-35.5347 491.8217,-32.0747 497.4922,-41.0243 501.8356,-35.5347"/>
</g>
<!-- [root] meta.count&#45;boundary (count boundary fixup) -->
<g id="node9" class="node">
<title>[root] meta.count&#45;boundary (count boundary fixup)</title>
<ellipse fill="none" stroke="#000000" cx="193.0329" cy="-306" rx="193.0657" ry="18"/>
<text text-anchor="middle" x="193.0329" y="-302.3" font-family="Times,serif" font-size="14.00" fill="#000000">[root] meta.count&#45;boundary (count boundary fixup)</text>
</g>
<!-- [root] meta.count&#45;boundary (count boundary fixup)&#45;&gt;[root] aws_instance.server -->
<g id="edge9" class="edge">
<title>[root] meta.count&#45;boundary (count boundary fixup)&#45;&gt;[root] aws_instance.server</title>
<path fill="none" stroke="#000000" d="M295.1423,-290.7207C354.9058,-281.2756 431.9936,-268.2322 508.5567,-252.2405"/>
<polygon fill="#000000" stroke="#000000" points="509.3122,-255.6583 518.3762,-250.1725 507.8695,-248.8085 509.3122,-255.6583"/>
</g>
<!-- [root] meta.count&#45;boundary (count boundary fixup)&#45;&gt;[root] aws_security_group.http_in_80 -->
<g id="edge10" class="edge">
<title>[root] meta.count&#45;boundary (count boundary fixup)&#45;&gt;[root] aws_security_group.http_in_80</title>
<path fill="none" stroke="#000000" d="M174.6119,-287.8314C165.8799,-279.219 155.3011,-268.7851 145.7906,-259.4048"/>
<polygon fill="#000000" stroke="#000000" points="148.0254,-256.6931 138.448,-252.1628 143.1099,-261.6769 148.0254,-256.6931"/>
</g>
<!-- [root] meta.count&#45;boundary (count boundary fixup)&#45;&gt;[root] aws_subnet.subnet1 -->
<g id="edge11" class="edge">
<title>[root] meta.count&#45;boundary (count boundary fixup)&#45;&gt;[root] aws_subnet.subnet1</title>
<path fill="none" stroke="#000000" d="M218.5087,-288.0171C231.4091,-278.9109 247.2452,-267.7324 261.1578,-257.9118"/>
<polygon fill="#000000" stroke="#000000" points="263.3771,-260.6295 269.5283,-252.0032 259.3402,-254.9107 263.3771,-260.6295"/>
</g>
<!-- [root] meta.count&#45;boundary (count boundary fixup)&#45;&gt;[root] aws_subnet.subnet2 -->
<g id="edge12" class="edge">
<title>[root] meta.count&#45;boundary (count boundary fixup)&#45;&gt;[root] aws_subnet.subnet2</title>
<path fill="none" stroke="#000000" d="M251.7165,-288.7542C286.2837,-278.5957 330.2568,-265.673 366.8019,-254.9332"/>
<polygon fill="#000000" stroke="#000000" points="367.8018,-258.2874 376.4092,-252.1098 365.8281,-251.5714 367.8018,-258.2874"/>
</g>
<!-- [root] provider.aws (close) -->
<g id="node10" class="node">
<title>[root] provider.aws (close)</title>
<ellipse fill="none" stroke="#000000" cx="509.0329" cy="-306" rx="105.0817" ry="18"/>
<text text-anchor="middle" x="509.0329" y="-302.3" font-family="Times,serif" font-size="14.00" fill="#000000">[root] provider.aws (close)</text>
</g>
<!-- [root] provider.aws (close)&#45;&gt;[root] aws_instance.server -->
<g id="edge13" class="edge">
<title>[root] provider.aws (close)&#45;&gt;[root] aws_instance.server</title>
<path fill="none" stroke="#000000" d="M526.8306,-288.2022C535.5054,-279.5275 546.0937,-268.9391 555.6025,-259.4304"/>
<polygon fill="#000000" stroke="#000000" points="558.3435,-261.6391 562.9398,-252.0931 553.3938,-256.6893 558.3435,-261.6391"/>
</g>
<!-- [root] provider.aws (close)&#45;&gt;[root] aws_security_group.http_in_80 -->
<g id="edge14" class="edge">
<title>[root] provider.aws (close)&#45;&gt;[root] aws_security_group.http_in_80</title>
<path fill="none" stroke="#000000" d="M437.2309,-292.7102C377.5111,-281.6566 291.7069,-265.7751 224.3955,-253.3165"/>
<polygon fill="#000000" stroke="#000000" points="224.6515,-249.8045 214.1815,-251.426 223.3774,-256.6876 224.6515,-249.8045"/>
</g>
<!-- [root] provider.aws (close)&#45;&gt;[root] aws_subnet.subnet1 -->
<g id="edge15" class="edge">
<title>[root] provider.aws (close)&#45;&gt;[root] aws_subnet.subnet1</title>
<path fill="none" stroke="#000000" d="M461.2735,-289.9314C430.8896,-279.7088 391.1997,-266.3552 358.2213,-255.2597"/>
<polygon fill="#000000" stroke="#000000" points="359.2609,-251.9167 348.6668,-252.0451 357.0286,-258.5512 359.2609,-251.9167"/>
</g>
<!-- [root] provider.aws (close)&#45;&gt;[root] aws_subnet.subnet2 -->
<g id="edge16" class="edge">
<title>[root] provider.aws (close)&#45;&gt;[root] aws_subnet.subnet2</title>
<path fill="none" stroke="#000000" d="M491.4823,-288.2022C482.928,-279.5275 472.4868,-268.9391 463.11,-259.4304"/>
<polygon fill="#000000" stroke="#000000" points="465.3883,-256.756 455.8747,-252.0931 460.404,-261.671 465.3883,-256.756"/>
</g>
<!-- [root] root -->
<g id="node11" class="node">
<title>[root] root</title>
<ellipse fill="none" stroke="#000000" cx="351.0329" cy="-378" rx="47.3916" ry="18"/>
<text text-anchor="middle" x="351.0329" y="-374.3" font-family="Times,serif" font-size="14.00" fill="#000000">[root] root</text>
</g>
<!-- [root] root&#45;&gt;[root] meta.count&#45;boundary (count boundary fixup) -->
<g id="edge17" class="edge">
<title>[root] root&#45;&gt;[root] meta.count&#45;boundary (count boundary fixup)</title>
<path fill="none" stroke="#000000" d="M320.5689,-364.1177C298.0468,-353.8544 266.9318,-339.6754 241.0736,-327.892"/>
<polygon fill="#000000" stroke="#000000" points="242.3616,-324.6327 231.8105,-323.6708 239.4588,-331.0025 242.3616,-324.6327"/>
</g>
<!-- [root] root&#45;&gt;[root] provider.aws (close) -->
<g id="edge18" class="edge">
<title>[root] root&#45;&gt;[root] provider.aws (close)</title>
<path fill="none" stroke="#000000" d="M381.4969,-364.1177C404.4982,-353.6361 436.4619,-339.0703 462.6354,-327.1432"/>
<polygon fill="#000000" stroke="#000000" points="464.3405,-330.2125 471.9889,-322.8808 461.4378,-323.8427 464.3405,-330.2125"/>
</g>
</g>
</svg>
